<?xml version="1.0" encoding="iso-8859-1"?>
<!-- Generator: Adobe Illustrator 16.0.0, SVG Export Plug-In . SVG Version: 6.00 Build 0)  -->
<!DOCTYPE svg PUBLIC "-//W3C//DTD SVG 1.1//EN" "http://www.w3.org/Graphics/SVG/1.1/DTD/svg11.dtd">
<svg version="1.1" id="Capa_1" xmlns="http://www.w3.org/2000/svg" xmlns:xlink="http://www.w3.org/1999/xlink" x="0px" y="0px"
	 width="200.568px" height="200.567px" viewBox="0 0 200.568 200.567" style="enable-background:new 0 0 200.568 200.567;"
	 xml:space="preserve">
<g>
	<g>
		<path d="M89.421,150.068c-2.091-9.254-7.305-18.758-13.948-25.429c-6.54-6.747-15.949-12.13-25.145-14.396
			c-4.308-1.1-8.076-1.529-10.471-1.696c-0.376-0.027-0.734-0.041-1.062-0.041c-3.529,0-4.539,1.851-4.827,2.952
			c-0.229,0.875-0.436,3.095,2.57,4.781l0.386,0.219c1.672,0.947,3.962,2.242,6.662,3.965c3.395,2.115,12.13,7.904,19.943,15.972
			c7.579,7.626,13.003,15.943,15.581,20.255c1.67,2.719,2.935,5.045,3.858,6.742l0.176,0.323c0.986,1.836,2.293,2.767,3.886,2.767
			c1.009,0,1.953-0.408,2.657-1.148c1.231-1.297,1.311-3.147,1.226-4.776C90.796,158.177,90.442,154.418,89.421,150.068z
			 M68.346,131.67c-5.844-6.036-12.064-10.819-16.727-14.04c7.073,2.302,14.017,6.555,19.022,11.723
			c0.011,0.013,0.023,0.022,0.035,0.035c5.111,5.125,9.252,12.181,11.412,19.334C78.943,143.97,74.262,137.623,68.346,131.67z"/>
		<path d="M191.156,11.076c-6.445-6.564-15.57-9.892-27.123-9.892c-14.29,0-31.642,5.202-50.18,15.045
			c-18.81,9.987-37.969,24.315-55.408,41.435c-23.965,23.528-42.352,49.946-51.774,74.383c-9.757,25.307-8.783,45.709,2.743,57.447
			c6.441,6.561,15.564,9.888,27.115,9.89c0.002,0,0.003,0,0.006,0c14.288,0,31.64-5.203,50.176-15.046
			c18.812-9.988,37.973-24.318,55.411-41.439c23.966-23.527,42.354-49.943,51.775-74.38
			C203.654,43.216,202.68,22.816,191.156,11.076z M187.599,66.091c-9.083,23.557-26.913,49.124-50.206,71.989
			c-33.755,33.141-73.344,54.554-100.859,54.553h-0.006c-9.672-0.001-17.175-2.648-22.299-7.867
			c-4.712-4.799-7.217-11.596-7.447-20.201c-0.233-8.715,1.849-18.838,6.187-30.09c9.083-23.559,26.913-49.127,50.205-71.994
			C96.926,29.346,136.515,7.935,164.033,7.935c9.674,0,17.18,2.648,22.308,7.87c4.711,4.799,7.216,11.595,7.445,20.2
			C194.018,44.718,191.937,54.841,187.599,66.091z"/>
		<path d="M166.861,74.042c-2.084-9.243-7.302-18.757-13.928-25.418c-6.553-6.755-15.971-12.144-25.166-14.411
			c-4.38-1.115-8.122-1.535-10.468-1.689c-0.378-0.027-0.736-0.041-1.066-0.041c-3.527,0-4.536,1.849-4.824,2.951
			c-0.229,0.875-0.434,3.093,2.567,4.776l0.312,0.177c1.688,0.956,3.997,2.265,6.737,4.013c3.391,2.113,12.119,7.894,19.94,15.972
			c7.569,7.617,13.004,15.937,15.587,20.247c1.605,2.62,2.845,4.893,3.75,6.553l0.284,0.52c0.984,1.835,2.293,2.766,3.885,2.766
			c1.012,0,1.956-0.41,2.661-1.153c1.23-1.301,1.306-3.152,1.217-4.774C168.228,82.112,167.871,78.323,166.861,74.042z
			 M145.784,55.646c-5.854-6.047-12.079-10.832-16.74-14.051c7.072,2.301,14.029,6.56,19.074,11.759
			c5.112,5.139,9.25,12.192,11.408,19.334C156.375,67.936,151.692,61.59,145.784,55.646z"/>
		<path d="M128.139,112.06c-2.082-9.241-7.295-18.748-13.946-25.434c-6.549-6.754-15.957-12.137-25.145-14.397
			c-4.344-1.108-8.098-1.534-10.477-1.696c-0.367-0.025-0.716-0.038-1.038-0.038c-3.549,0-4.56,1.854-4.848,2.959
			c-0.228,0.877-0.432,3.097,2.565,4.768l0.477,0.271c1.657,0.941,3.926,2.23,6.577,3.915c4.224,2.634,12.427,8.207,19.905,15.945
			c0.012,0.011,0.022,0.023,0.033,0.034c7.577,7.624,13.007,15.939,15.587,20.249c1.644,2.678,2.896,4.981,3.812,6.663l0.219,0.402
			c0.67,1.25,1.862,1.998,3.19,2h0.004c1.07,0,2.072-0.487,2.748-1.34c0.665-0.838,1.206-1.938,1.094-6.918
			C128.873,118.361,128.746,114.635,128.139,112.06z M107.047,93.645c-5.825-6.023-12.041-10.805-16.707-14.029
			c7.066,2.298,14.008,6.551,19.02,11.724c0.011,0.011,0.022,0.022,0.033,0.033c5.112,5.133,9.251,12.184,11.409,19.327
			C117.656,105.953,112.974,99.611,107.047,93.645z"/>
	</g>
</g>
<g>
</g>
<g>
</g>
<g>
</g>
<g>
</g>
<g>
</g>
<g>
</g>
<g>
</g>
<g>
</g>
<g>
</g>
<g>
</g>
<g>
</g>
<g>
</g>
<g>
</g>
<g>
</g>
<g>
</g>
</svg>
