<?xml version="1.0" encoding="iso-8859-1"?>
<!-- Generator: Adobe Illustrator 18.0.0, SVG Export Plug-In . SVG Version: 6.00 Build 0)  -->
<!DOCTYPE svg PUBLIC "-//W3C//DTD SVG 1.1//EN" "http://www.w3.org/Graphics/SVG/1.1/DTD/svg11.dtd">
<svg version="1.1" id="Capa_1" xmlns="http://www.w3.org/2000/svg" xmlns:xlink="http://www.w3.org/1999/xlink" x="0px" y="0px"
	 viewBox="0 0 272.5 272.5" style="enable-background:new 0 0 272.5 272.5;" xml:space="preserve">
<g>
	<path d="M252.021,23.235C238.822,10.036,221.27,2.766,202.6,2.766L69.895,2.762C31.354,2.762,0,34.117,0,72.657
		c0,23.018,11.171,44.286,30.01,57.384v107.786c0,17.596,14.315,31.911,31.911,31.911h121.654c0.026,0,0.051-0.002,0.077-0.002
		h26.918c17.601,0,31.92-14.314,31.92-31.909v-107.79c18.839-13.102,30.01-34.369,30.01-57.38
		C272.5,53.981,265.227,36.429,252.021,23.235z M39.01,237.827V127.639c0-1.529-0.776-2.953-2.061-3.781
		C19.448,112.571,9,93.43,9,72.657C9,39.08,36.317,11.762,69.895,11.762l105.861,0.004c33.507,0.084,60.742,27.365,60.742,60.891
		c0,20.773-10.448,39.914-27.949,51.2c-1.285,0.829-2.062,2.253-2.062,3.782v110.188c0,12.607-10.237,22.867-22.834,22.909
		l-121.731,0.002C49.288,260.738,39.01,250.46,39.01,237.827z M210.57,260.736h-4.814c5.993-5.805,9.73-13.927,9.73-22.909V132.139
		h18.004v105.688C233.49,250.458,223.208,260.736,210.57,260.736z M236.623,123.139h-12.689
		c13.681-13.06,21.563-31.154,21.563-50.482c0-25.697-13.95-48.184-34.664-60.328c13.144,1.766,25.29,7.735,34.826,17.271
		C257.164,41.095,263.5,56.386,263.5,72.657C263.5,92.994,253.475,111.765,236.623,123.139z"/>
	<path d="M183.084,252.442c8.655,0,15.697-7.041,15.697-15.696V120.182c17.862-9.078,29.247-27.471,29.247-47.657
		c0-29.474-23.979-53.452-53.452-53.452H70.92c-29.473,0-53.451,23.979-53.451,53.452c0,20.187,11.385,38.579,29.247,47.657v116.564
		c0,8.655,7.042,15.696,15.697,15.696H183.084z M55.716,236.746V117.336c0-1.784-1.054-3.399-2.687-4.118
		c-16.135-7.105-26.561-23.078-26.561-40.693c0-24.511,19.94-44.452,44.451-44.452h103.656c24.511,0,44.452,19.941,44.452,44.452
		c0,17.614-10.426,33.588-26.561,40.693c-1.633,0.719-2.686,2.334-2.686,4.118v119.409c0,3.692-3.004,6.696-6.697,6.696H62.413
		C58.721,243.442,55.716,240.438,55.716,236.746z"/>
	<circle cx="193.718" cy="72.126" r="4.5"/>
	<circle cx="193.718" cy="54.626" r="4.5"/>
	<circle cx="205.718" cy="80.626" r="4.5"/>
	<circle cx="205.718" cy="63.126" r="4.5"/>
	<circle cx="194.218" cy="89.626" r="4.5"/>
</g>
<g>
</g>
<g>
</g>
<g>
</g>
<g>
</g>
<g>
</g>
<g>
</g>
<g>
</g>
<g>
</g>
<g>
</g>
<g>
</g>
<g>
</g>
<g>
</g>
<g>
</g>
<g>
</g>
<g>
</g>
</svg>
